<svg width="186" height="182" viewBox="0 0 186 182" fill="none" xmlns="http://www.w3.org/2000/svg">
<g opacity="0.7">
<path d="M91.3933 181.998C41.2653 181.998 0.483398 141.176 0.483398 90.9992C0.483398 40.8219 41.2653 0 91.3933 0C141.521 0 182.303 40.8219 182.303 90.9992C182.303 141.176 141.521 181.998 91.3933 181.998ZM91.3933 5.38903C44.2317 5.38903 5.86715 43.7913 5.86715 90.9992C5.86715 138.207 44.2317 176.609 91.3933 176.609C138.555 176.609 176.92 138.207 176.92 90.9992C176.92 43.7913 138.555 5.38903 91.3933 5.38903Z" fill="#009FE3"/>
<path d="M92.9987 177.65C91.9758 177.65 90.9421 177.644 89.8976 177.628C67.3074 177.316 45.9501 168.699 29.7558 153.378C13.4538 137.954 3.77385 116.996 2.50328 94.3623C0.796634 64.0652 14.8751 34.598 39.2527 17.4447C54.1873 6.94147 72.4005 1.55244 90.5383 2.25302C109.947 3.01287 126.976 10.2611 139.773 23.2163C160.252 43.9479 173.572 68.2686 178.293 93.5486C182.923 118.333 172.78 145.353 153.06 160.782C138.028 172.541 119.944 177.644 92.9987 177.644V177.65ZM87.3511 7.58277C71.3776 7.58277 55.5063 12.6 42.3484 21.8583C31.3494 29.597 22.3101 40.3265 16.2049 52.8937C9.95977 65.7466 7.07947 79.9844 7.87088 94.0605C9.06607 115.315 18.1538 134.99 33.4491 149.465C48.6581 163.859 68.7287 171.948 89.9622 172.245C117.306 172.616 135.186 167.928 149.738 156.546C167.919 142.325 177.265 117.411 172.996 94.5509C168.473 70.3272 155.66 46.9766 135.939 27.0156C124.117 15.052 108.342 8.3534 90.323 7.64744C89.3323 7.60971 88.3417 7.58816 87.3511 7.58816V7.58277Z" fill="#4A9ED7"/>
<path d="M110.684 173.774C105.693 173.774 100.423 173.618 94.786 173.446C92.7079 173.381 90.5813 173.322 88.3955 173.262C67.485 172.707 47.5705 164.963 32.3345 151.453C16.8401 137.716 6.9663 118.639 4.52746 97.7352C2.7939 82.8992 5.11967 67.5728 11.2518 53.4104C17.2816 39.4852 26.5147 27.7048 37.9605 19.341C53.0566 8.30963 71.4205 3.04994 89.6876 4.51576C108.741 6.05163 124.86 14.895 135.073 29.4185C153.162 55.1511 165.577 76.3138 174.153 96.0269C178.702 106.487 179.332 119.518 175.892 131.783C172.215 144.868 164.258 156.066 153.485 163.309C140.483 172.05 127.142 173.774 110.695 173.774H110.684ZM83.6632 9.66228C68.5617 9.66228 53.6488 14.5501 41.1369 23.6953C19.182 39.7331 6.62174 69.2326 9.87352 97.1047C12.1616 116.694 21.4055 134.558 35.9039 147.417C50.1978 160.086 68.8902 167.351 88.5408 167.873C90.732 167.933 92.864 167.997 94.9475 168.057C118.178 168.757 134.965 169.258 150.475 158.831C172.037 144.334 176.99 116.058 169.211 98.1717C160.785 78.8035 148.537 57.9426 130.663 32.5172C121.252 19.1362 106.937 11.3059 89.2515 9.88323C87.3887 9.73234 85.5206 9.65689 83.6578 9.65689L83.6632 9.66228Z" fill="#4E8AC9"/>
<path d="M128.46 172.093C122.404 172.093 116.029 171.42 109.057 170.681C102.505 169.986 95.0812 169.205 86.8979 168.892C67.6241 168.154 49.1417 161.294 34.8424 149.562C19.8702 137.28 10.088 120.526 6.55623 101.109C1.19402 71.5879 13.5713 38.7418 36.6675 21.2328C51.742 9.80269 70.7574 4.53221 88.8414 6.77944C107.593 9.1075 122.318 19.352 130.296 35.6377C144.445 64.5013 159.643 85.3407 169.84 98.5007C176.963 107.689 179.606 120.31 177.092 133.125C174.384 146.937 165.931 158.852 153.893 165.81C145.538 170.644 137.344 172.093 128.46 172.093ZM80.5666 11.6565C66.2458 11.6565 51.7797 16.5336 39.9193 25.5279C18.3789 41.862 6.84157 72.5472 11.8592 100.144C15.1595 118.284 24.2849 133.928 38.2611 145.391C51.6559 156.379 69.0023 162.808 87.1079 163.503C95.4688 163.821 102.99 164.619 109.628 165.319C126.49 167.103 138.668 168.391 151.207 161.137C161.899 154.956 169.409 144.367 171.816 132.08C173.996 120.957 171.665 109.634 165.592 101.793C155.245 88.4448 139.831 67.309 125.467 37.9981C118.21 23.1944 105.316 14.2432 88.1792 12.1146C85.6596 11.802 83.1131 11.6457 80.5666 11.6457V11.6565Z" fill="#5B74B8"/>
<path d="M137.156 172.271C130.34 172.271 123.336 170.757 115.422 169.048C106.851 167.195 97.1329 165.098 85.4125 164.516C47.5055 162.636 17.3619 139.075 8.61873 104.493C5.017 90.2393 5.82995 74.1045 10.9176 59.0745C15.8868 44.384 24.5762 31.612 35.3813 23.1189C50.6927 11.0852 69.875 5.94944 88.0021 9.04275C106.296 12.1576 119.594 23.8033 125.451 41.835C133.759 67.4006 146.453 86.2245 165.41 101.071C174.977 108.567 179.897 120.822 178.567 133.847C177.06 148.624 167.994 161.504 154.324 168.289C148.462 171.199 142.873 172.266 137.156 172.266V172.271ZM77.5361 13.5588C63.8829 13.5588 50.1382 18.3765 38.7031 27.3655C28.7109 35.2227 20.6514 47.1001 16.0106 60.8098C11.2568 74.8698 10.4815 89.9159 13.8356 103.178C17.9757 119.545 27.198 133.449 40.512 143.397C53.1854 152.86 68.8036 158.303 85.6763 159.143C97.8382 159.747 107.782 161.892 116.557 163.789C130.614 166.823 140.768 169.016 151.934 163.471C163.94 157.511 171.897 146.237 173.216 133.308C174.357 122.132 170.201 111.671 162.099 105.323C142.534 89.9968 128.87 69.7771 120.337 43.5056C115.055 27.2415 103.561 17.164 87.103 14.3617C83.9427 13.8228 80.7448 13.5588 77.5468 13.5588H77.5361Z" fill="#6D61A8"/>
<path d="M142.178 173.338C134.565 173.338 127.087 170.805 118.882 168.024C109.186 164.742 98.1928 161.019 83.9151 160.146C67.4839 159.143 52.1886 154.218 39.6768 145.908C25.916 136.763 15.8914 123.619 10.6853 107.888C6.04454 93.8605 6.03377 77.5264 10.6638 61.8928C15.1485 46.755 23.4663 33.6597 34.0885 25.0103C49.4375 12.5131 69.282 7.38817 87.1615 11.3168C104.874 15.2023 116.729 28.2329 120.546 48.0053C127.54 84.2681 146.943 97.2179 160.93 103.803C173.145 109.553 180.284 121.124 180.02 134.758C179.724 150.235 169.802 164.371 154.749 170.762C150.431 172.594 146.28 173.333 142.173 173.333L142.178 173.338ZM75.0426 15.4178C61.9225 15.4178 48.4739 20.2518 37.4856 29.203C16.6451 46.1676 7.11591 79.9946 15.7891 106.201C20.6829 120.984 29.7169 132.834 42.6486 141.424C54.369 149.211 68.7544 153.83 84.2381 154.773C99.2372 155.689 110.586 159.531 120.605 162.926C133.149 167.173 142.21 170.245 152.649 165.809C165.748 160.248 174.384 148.02 174.637 134.666C174.857 123.22 168.876 113.509 158.636 108.691C147.766 103.572 139.174 97.0023 132.374 88.6008C123.992 78.2377 118.387 65.2987 115.254 49.0454C111.824 31.2616 101.708 20.0416 86.004 16.598C82.4184 15.8112 78.7413 15.4286 75.0373 15.4286L75.0426 15.4178Z" fill="#81519C"/>
<path d="M145.576 174.938C137.333 174.938 129.592 171.333 120.994 167.329C110.576 162.474 98.7643 156.977 82.4192 155.781C67.3285 154.681 53.3523 150.666 42.0088 144.173C28.5063 136.445 18.6649 125.386 12.7696 111.299C7.01442 97.552 6.15302 81.0131 10.347 64.7382C14.2986 49.401 22.4819 35.6105 32.8026 26.9126C48.2109 13.9197 68.7229 8.82704 86.3332 13.6071C103.378 18.2363 113.774 32.6358 115.599 54.1488C117.026 70.941 121.656 83.3627 129.753 92.1253C136.138 99.0394 144.634 103.669 156.489 106.686C171.165 110.421 180.71 121.625 181.399 135.917C182.062 149.545 174.212 166.365 155.191 173.225C151.87 174.421 148.688 174.938 145.581 174.938H145.576ZM72.7661 17.2231C60.082 17.2231 46.8811 22.0894 36.2697 31.0352C26.7889 39.0272 19.2409 51.8046 15.5584 66.0855C11.6552 81.2287 12.4305 96.5497 17.7335 109.219C23.6071 123.258 39.8768 147.271 82.8122 150.408C100.142 151.674 112.967 157.645 123.266 162.441C134.469 167.658 143.315 171.781 153.366 168.159C169.797 162.231 176.581 147.826 176.021 136.181C175.44 124.163 167.639 115.088 155.159 111.908C142.254 108.621 132.924 103.496 125.796 95.7844C116.854 86.1057 111.766 72.6332 110.232 54.6069C108.584 35.2387 99.8356 22.8601 84.9173 18.8075C80.9925 17.7405 76.9062 17.2231 72.7607 17.2231H72.7661Z" fill="#994091"/>
<path d="M148.099 176.825C139.227 176.825 131.275 172.11 122.376 166.823C111.441 160.335 99.0478 152.979 80.9153 151.41C47.7999 148.549 26.1949 136.542 14.8675 114.711C7.91707 101.314 6.16736 84.5864 9.94136 67.611C13.4462 51.8481 21.3064 37.7073 31.5033 28.81C47.2292 15.0895 67.9189 10.1478 85.4915 15.9033C93.4702 18.5169 99.6884 23.5395 103.979 30.8363C108.437 38.4186 110.671 48.3183 110.607 60.2496C110.515 78.4861 114.499 91.1449 122.779 98.9482C129.234 105.032 138.279 108.341 152.099 109.667C172.794 111.656 181.457 125.284 182.663 137.377C183.443 145.218 181.376 153.313 176.838 160.168C171.922 167.594 164.589 172.961 155.62 175.683C153.014 176.475 150.516 176.825 148.094 176.825H148.099ZM70.6593 18.9858C58.3413 18.9858 45.3395 23.8844 35.0458 32.8679C16.628 48.938 5.76896 85.481 19.6483 112.227C30.055 132.29 50.2495 143.348 81.3837 146.043C100.744 147.719 114.262 155.743 125.127 162.188C135.792 168.521 144.217 173.516 154.07 170.525C166.851 166.645 178.937 154.197 177.317 137.911C176.03 125.01 166.415 116.457 151.598 115.034C128.545 112.82 105.013 104.574 105.234 60.2226C105.341 39.2 97.9387 25.6466 83.8279 21.0282C79.6447 19.6594 75.1978 18.9912 70.6646 18.9912L70.6593 18.9858Z" fill="#B3328A"/>
<path d="M150.125 178.879C140.607 178.879 132.482 173.037 123.319 166.446C111.987 158.298 99.1463 149.061 79.4095 147.04C59.5327 145.003 32.3179 142.212 16.9957 118.128C8.75859 105.178 6.08287 88.2836 9.45847 70.5483C12.4949 54.5859 20.2583 39.6907 30.2182 30.7072C46.0464 16.4262 67.4199 11.5222 84.6694 18.2046C95.6577 22.4619 108.213 34.2639 105.618 66.3071C104.105 84.9747 106.931 97.612 114.253 104.946C120.87 111.564 131.486 114.032 147.67 112.717C157.738 111.898 166.454 114.027 172.877 118.866C178.616 123.194 182.46 129.704 183.698 137.2C185.06 145.45 183.208 154.434 178.616 161.844C173.593 169.944 165.593 175.726 156.085 178.124C154.028 178.641 152.047 178.879 150.125 178.879ZM68.4428 20.6351C56.5178 20.6351 43.9575 25.566 33.8253 34.7058C24.7052 42.9349 17.5772 56.7092 14.7507 71.556C11.6335 87.9387 14.0454 103.448 21.5396 115.234C35.4566 137.119 60.1303 139.646 79.9586 141.678C101.122 143.844 115.168 153.949 126.458 162.07C136.789 169.502 144.951 175.37 154.766 172.897C168.629 169.399 181.254 155.42 178.384 138.078C175.682 121.744 160.973 117.045 148.101 118.09C145.161 118.327 142.442 118.441 139.928 118.441C122.366 118.441 114.748 113.062 110.447 108.756C101.935 100.242 98.6026 86.2142 100.25 65.8706C102.091 43.1343 96.0345 28.3845 82.7259 23.2326C78.2197 21.4865 73.3851 20.6405 68.4428 20.6405V20.6351Z" fill="#CD1E84"/>
<path d="M151.833 181.039C141.652 181.039 133.361 174.071 123.951 166.165C112.295 156.373 99.0884 145.272 77.8926 142.663C75.163 142.329 72.1589 142.108 68.9771 141.871C52.9012 140.691 32.8952 139.225 19.1613 121.538C9.55127 109.171 5.90648 92.1359 8.89984 73.5707C11.5486 57.1449 19.0374 41.8239 28.9382 32.5871C44.8794 17.7188 66.9474 12.8579 83.8524 20.4995C94.2699 25.2095 105.635 38.0193 100.617 72.3204C97.8394 91.3222 99.5998 103.76 105.996 110.345C113.135 117.696 126.196 117.825 143.612 115.767C170.703 112.56 182.897 127.439 185.11 141.155C186.44 149.394 184.475 158.211 179.721 165.351C174.525 173.149 166.299 178.544 156.549 180.548C154.929 180.882 153.362 181.039 151.838 181.039H151.833ZM66.6136 22.3049C54.947 22.3049 42.5106 27.3005 32.6045 36.5427C23.6836 44.8633 16.6363 59.3868 14.2136 74.4383C11.4625 91.5054 14.7304 107.064 23.409 118.24C35.6732 134.036 54.3602 135.404 69.3701 136.504C72.6219 136.741 75.6906 136.967 78.5548 137.318C101.328 140.125 115.794 152.277 127.412 162.042C137.561 170.568 145.577 177.304 155.462 175.272C166.164 173.074 172.124 167.038 175.236 162.366C179.247 156.346 180.905 148.931 179.791 142.017C177.869 130.107 167.521 118.37 144.242 121.123C128.225 123.02 111.783 124.039 102.136 114.107C94.4907 106.239 92.251 92.3191 95.2875 71.5444C97.7909 54.4504 97.4517 32.5656 81.6343 25.4197C76.9881 23.318 71.8789 22.3049 66.619 22.3049H66.6136Z" fill="#E6007E"/>
</g>
</svg>
